<svg width="146" height="31" viewBox="0 0 146 31" fill="none" xmlns="http://www.w3.org/2000/svg">
<path d="M11.9531 3.51562H11.4844C9.11458 3.51562 7.33073 4.05599 6.13281 5.13672C4.6875 6.4388 3.96484 8.59375 3.96484 11.6016C3.96484 12.4349 4.05599 13.099 4.23828 13.5938C4.29036 13.763 4.35547 13.9128 4.43359 14.043C4.48568 14.1341 4.51172 14.2253 4.51172 14.3164C3.06641 14.3164 2.01172 14.0299 1.34766 13.457C0.605469 12.832 0.234375 11.8294 0.234375 10.4492C0.234375 9.06901 0.488281 7.76042 0.996094 6.52344C1.51693 5.27344 2.30469 4.17969 3.35938 3.24219C4.49219 2.22656 5.93099 1.4388 7.67578 0.878906C9.43359 0.31901 11.5039 0.0390625 13.8867 0.0390625C15.2539 0.0390625 16.5625 0.117188 17.8125 0.273438C18.2031 0.3125 18.7109 0.384115 19.3359 0.488281C20.3776 0.683594 21.3802 0.813802 22.3438 0.878906C22.8125 0.93099 23.4049 0.957031 24.1211 0.957031C25.0065 0.957031 25.8529 0.878906 26.6602 0.722656C27.4674 0.566406 28.1706 0.364583 28.7695 0.117188C28.7044 1.86198 28.2552 3.14453 27.4219 3.96484C26.6016 4.78516 25.3841 5.19531 23.7695 5.19531C22.8971 5.19531 22.0182 5.1237 21.1328 4.98047C20.2474 4.83724 19.056 4.61589 17.5586 4.31641L12.0312 30H6.28906L11.9531 3.51562ZM21.9727 10H27.7344L27.2266 12.4805C28.138 11.6732 28.8802 11.1003 29.4531 10.7617C30.3385 10.2539 31.2044 10 32.0508 10C32.9102 10 33.6003 10.306 34.1211 10.918C34.3555 11.1914 34.5312 11.5104 34.6484 11.875C34.7656 12.2266 34.8242 12.6042 34.8242 13.0078C34.8242 13.3724 34.7656 13.724 34.6484 14.0625C34.5312 14.401 34.3555 14.707 34.1211 14.9805C33.8607 15.2669 33.5417 15.4948 33.1641 15.6641C32.7995 15.8333 32.3893 15.918 31.9336 15.918C31.582 15.918 31.3021 15.8594 31.0938 15.7422C30.8854 15.625 30.7227 15.4557 30.6055 15.2344C30.5013 15.013 30.4297 14.7982 30.3906 14.5898C30.2734 14.0299 30.1562 13.6589 30.0391 13.4766C29.9479 13.3464 29.8047 13.2812 29.6094 13.2812C29.0495 13.2812 28.5742 13.3984 28.1836 13.6328C27.793 13.8672 27.2982 14.2578 26.6992 14.8047L23.4961 30H17.7344L21.9727 10ZM39.1016 30.2344C37.5781 30.2344 36.3477 29.7591 35.4102 28.8086C34.3164 27.6888 33.7695 26.0221 33.7695 23.8086C33.7695 22.8711 33.8672 21.8815 34.0625 20.8398C34.2448 19.7982 34.5182 18.7695 34.8828 17.7539C35.7161 15.4622 36.8555 13.6133 38.3008 12.207C39.9674 10.6055 41.888 9.80469 44.0625 9.80469C45.1432 9.80469 45.9505 9.99349 46.4844 10.3711C47.0312 10.7357 47.3047 11.224 47.3047 11.8359V12.1289L47.7344 10H53.4961L50.625 23.5938C50.5078 23.9844 50.4492 24.4141 50.4492 24.8828C50.4492 26.0286 50.9961 26.6016 52.0898 26.6016C52.819 26.6016 53.4831 26.2305 54.082 25.4883C54.5898 24.8633 55.0065 23.9779 55.332 22.832H57.0117C56.2956 24.8633 55.4297 26.4714 54.4141 27.6562C53.5547 28.6328 52.5846 29.3359 51.5039 29.7656C50.7096 30.0781 49.8698 30.2344 48.9844 30.2344C47.8516 30.2344 46.9466 29.9284 46.2695 29.3164C45.6055 28.6914 45.2018 27.7734 45.0586 26.5625C44.3034 27.6302 43.5091 28.4635 42.6758 29.0625C41.6081 29.8438 40.4167 30.2344 39.1016 30.2344ZM41.6992 26.3672C41.9987 26.3672 42.3112 26.2891 42.6367 26.1328C42.9753 25.9766 43.3008 25.7552 43.6133 25.4688C44.3164 24.7917 44.7852 23.9128 45.0195 22.832L46.9336 13.8086C46.9336 13.6784 46.901 13.5286 46.8359 13.3594C46.7839 13.1771 46.7057 13.0078 46.6016 12.8516C46.2891 12.474 45.8529 12.2852 45.293 12.2852C44.7591 12.2852 44.2383 12.4609 43.7305 12.8125C43.2357 13.1641 42.7669 13.6523 42.3242 14.2773C41.543 15.4102 40.8984 16.888 40.3906 18.7109C40.1562 19.5182 39.9805 20.319 39.8633 21.1133C39.7461 21.8945 39.6875 22.6042 39.6875 23.2422C39.6875 24.5703 39.9349 25.4688 40.4297 25.9375C40.599 26.1198 40.7878 26.237 40.9961 26.2891C41.2044 26.3411 41.4388 26.3672 41.6992 26.3672ZM59.9023 30.2344C58.3529 30.2344 57.1484 29.8438 56.2891 29.0625C55.4297 28.2682 55 27.0898 55 25.5273C55 24.8763 55.0651 24.2318 55.1953 23.5938L58.0664 10H63.8281L60.957 23.5938C60.8138 24.2318 60.7422 24.7135 60.7422 25.0391C60.7422 25.4557 60.8529 25.7812 61.0742 26.0156C61.2956 26.25 61.6406 26.3672 62.1094 26.3672C62.7344 26.3672 63.3464 26.1458 63.9453 25.7031C64.5443 25.2604 65.1107 24.6484 65.6445 23.8672C66.1393 23.151 66.5951 22.3177 67.0117 21.3672C67.4414 20.4167 67.806 19.4336 68.1055 18.418C68.3919 17.4284 68.6133 16.4648 68.7695 15.5273C68.9388 14.5768 69.0234 13.737 69.0234 13.0078C68.9714 13.125 68.7826 13.2227 68.457 13.3008C68.2487 13.3659 68.0143 13.3984 67.7539 13.3984C67.2982 13.3984 66.9401 13.1771 66.6797 12.7344C66.4323 12.3568 66.3086 11.901 66.3086 11.3672C66.3086 10.7161 66.5169 10.1953 66.9336 9.80469C67.3503 9.40104 67.9688 9.19922 68.7891 9.19922C69.6745 9.19922 70.332 9.55729 70.7617 10.2734C71.1263 10.8724 71.3086 11.6732 71.3086 12.6758C71.3086 13.7826 71.2109 14.9805 71.0156 16.2695C70.8333 17.5586 70.5534 18.8281 70.1758 20.0781C69.2643 23.0469 68.0339 25.3841 66.4844 27.0898C64.6094 29.1862 62.4154 30.2344 59.9023 30.2344ZM77.6367 30.2344C75.6706 30.2344 74.1536 29.7396 73.0859 28.75C71.9531 27.6953 71.3867 26.0742 71.3867 23.8867C71.3867 23.0664 71.4714 22.1549 71.6406 21.1523C71.7969 20.1497 72.0378 19.1471 72.3633 18.1445C72.7279 17.0247 73.1901 15.9635 73.75 14.9609C74.3229 13.9583 74.987 13.0729 75.7422 12.3047C77.487 10.5339 79.6354 9.64844 82.1875 9.64844C83.8151 9.64844 85 10.0391 85.7422 10.8203C86.3151 11.4323 86.6016 12.3177 86.6016 13.4766C86.6016 14.6094 86.3542 15.6771 85.8594 16.6797C85.3646 17.6693 84.681 18.5482 83.8086 19.3164C82.9362 20.0716 81.9466 20.6771 80.8398 21.1328C79.7331 21.5755 78.5872 21.8359 77.4023 21.9141C77.3372 22.5911 77.3047 23.125 77.3047 23.5156C77.3047 24.8177 77.5521 25.7161 78.0469 26.2109C78.4766 26.6536 79.1927 26.875 80.1953 26.875C81.6406 26.875 82.9622 26.4844 84.1602 25.7031C84.668 25.3776 85.1562 24.9935 85.625 24.5508C86.0938 24.0951 86.6406 23.5221 87.2656 22.832H88.6328C87.3698 24.9674 85.918 26.6667 84.2773 27.9297C82.2591 29.4661 80.0456 30.2344 77.6367 30.2344ZM77.7148 20C78.457 19.9479 79.1797 19.7331 79.8828 19.3555C80.5859 18.9779 81.2109 18.4831 81.7578 17.8711C82.3047 17.2461 82.7344 16.5495 83.0469 15.7812C83.3594 15 83.5156 14.2057 83.5156 13.3984C83.5156 12.8646 83.4375 12.4609 83.2812 12.1875C83.138 11.901 82.8841 11.7578 82.5195 11.7578C82.0378 11.7578 81.5495 11.9922 81.0547 12.4609C80.5729 12.9297 80.1042 13.5742 79.6484 14.3945C79.2318 15.1628 78.8542 16.0352 78.5156 17.0117C78.1771 17.9883 77.9102 18.9844 77.7148 20ZM91.2305 30.2344C89.9544 30.2344 88.9453 29.8568 88.2031 29.1016C87.3698 28.2682 86.9531 27.0508 86.9531 25.4492C86.9531 24.694 87.0573 23.8216 87.2656 22.832L91.543 2.79297L97.4609 1.99219L92.8711 23.5938C92.7669 23.9323 92.7148 24.362 92.7148 24.8828C92.7148 25.4297 92.8385 25.8138 93.0859 26.0352C93.3464 26.2565 93.763 26.3672 94.3359 26.3672C94.7266 26.3672 95.1042 26.2826 95.4688 26.1133C95.8464 25.931 96.1914 25.6836 96.5039 25.3711C97.1419 24.7331 97.6237 23.8867 97.9492 22.832H99.6289C98.9128 24.8503 98.0143 26.4583 96.9336 27.6562C96.0221 28.6328 94.9935 29.3359 93.8477 29.7656C93.0143 30.0781 92.1419 30.2344 91.2305 30.2344ZM103.691 30.2344C101.725 30.2344 100.208 29.7396 99.1406 28.75C98.0078 27.6953 97.4414 26.0742 97.4414 23.8867C97.4414 23.0664 97.526 22.1549 97.6953 21.1523C97.8516 20.1497 98.0924 19.1471 98.418 18.1445C98.7826 17.0247 99.2448 15.9635 99.8047 14.9609C100.378 13.9583 101.042 13.0729 101.797 12.3047C103.542 10.5339 105.69 9.64844 108.242 9.64844C109.87 9.64844 111.055 10.0391 111.797 10.8203C112.37 11.4323 112.656 12.3177 112.656 13.4766C112.656 14.6094 112.409 15.6771 111.914 16.6797C111.419 17.6693 110.736 18.5482 109.863 19.3164C108.991 20.0716 108.001 20.6771 106.895 21.1328C105.788 21.5755 104.642 21.8359 103.457 21.9141C103.392 22.5911 103.359 23.125 103.359 23.5156C103.359 24.8177 103.607 25.7161 104.102 26.2109C104.531 26.6536 105.247 26.875 106.25 26.875C107.695 26.875 109.017 26.4844 110.215 25.7031C110.723 25.3776 111.211 24.9935 111.68 24.5508C112.148 24.0951 112.695 23.5221 113.32 22.832H114.688C113.424 24.9674 111.973 26.6667 110.332 27.9297C108.314 29.4661 106.1 30.2344 103.691 30.2344ZM103.77 20C104.512 19.9479 105.234 19.7331 105.938 19.3555C106.641 18.9779 107.266 18.4831 107.812 17.8711C108.359 17.2461 108.789 16.5495 109.102 15.7812C109.414 15 109.57 14.2057 109.57 13.3984C109.57 12.8646 109.492 12.4609 109.336 12.1875C109.193 11.901 108.939 11.7578 108.574 11.7578C108.092 11.7578 107.604 11.9922 107.109 12.4609C106.628 12.9297 106.159 13.5742 105.703 14.3945C105.286 15.1628 104.909 16.0352 104.57 17.0117C104.232 17.9883 103.965 18.9844 103.77 20ZM116.035 10H121.797L121.289 12.4805C122.201 11.6732 122.943 11.1003 123.516 10.7617C124.401 10.2539 125.267 10 126.113 10C126.973 10 127.663 10.306 128.184 10.918C128.418 11.1914 128.594 11.5104 128.711 11.875C128.828 12.2266 128.887 12.6042 128.887 13.0078C128.887 13.3724 128.828 13.724 128.711 14.0625C128.594 14.401 128.418 14.707 128.184 14.9805C127.923 15.2669 127.604 15.4948 127.227 15.6641C126.862 15.8333 126.452 15.918 125.996 15.918C125.645 15.918 125.365 15.8594 125.156 15.7422C124.948 15.625 124.785 15.4557 124.668 15.2344C124.564 15.013 124.492 14.7982 124.453 14.5898C124.336 14.0299 124.219 13.6589 124.102 13.4766C124.01 13.3464 123.867 13.2812 123.672 13.2812C123.112 13.2812 122.637 13.3984 122.246 13.6328C121.855 13.8672 121.361 14.2578 120.762 14.8047L117.559 30H111.797L116.035 10ZM132.91 30.2344C131.947 30.2344 131.094 30.0911 130.352 29.8047C129.609 29.5052 128.984 29.0951 128.477 28.5742C128.008 28.0924 127.656 27.5586 127.422 26.9727C127.188 26.3737 127.07 25.7552 127.07 25.1172C127.07 24.2448 127.292 23.457 127.734 22.7539C128.125 22.1289 128.613 21.6797 129.199 21.4062C130.241 19.5573 131.146 17.6823 131.914 15.7812C132.682 13.8802 133.418 11.8034 134.121 9.55078L140.039 8.76953C140.195 12.1549 140.339 14.7526 140.469 16.5625C140.599 18.4245 140.71 19.7917 140.801 20.6641C140.879 21.6797 140.918 22.5651 140.918 23.3203C140.918 23.9974 140.866 24.5052 140.762 24.8438C141.96 24.1406 142.917 23.4701 143.633 22.832H145.312C144.362 23.9388 143.379 24.8893 142.363 25.6836C141.361 26.4779 140.306 27.194 139.199 27.832C138.405 28.6654 137.409 29.2839 136.211 29.6875C135.169 30.0521 134.069 30.2344 132.91 30.2344ZM131.641 27.0703C132.643 27.0703 133.444 26.7969 134.043 26.25C134.759 25.599 135.117 24.6354 135.117 23.3594C135.117 22.8255 135.085 22.1549 135.02 21.3477L134.922 20.1562C134.805 19.1276 134.688 17.9362 134.57 16.582L134.355 13.8867C133.978 15.0977 133.529 16.3021 133.008 17.5C132.487 18.6849 131.855 20 131.113 21.4453C131.725 21.7839 132.031 22.2461 132.031 22.832C132.031 23.3529 131.875 23.8021 131.562 24.1797C131.224 24.5964 130.794 24.8047 130.273 24.8047C130.013 24.8047 129.792 24.7721 129.609 24.707C129.44 24.6289 129.303 24.4857 129.199 24.2773C129.199 25.2409 129.388 25.9505 129.766 26.4062C130.143 26.849 130.768 27.0703 131.641 27.0703Z" fill="white"/>
</svg>
